<svg xmlns:dc="http://purl.org/dc/elements/1.1/" xmlns:cc="http://creativecommons.org/ns#" xmlns:rdf="http://www.w3.org/1999/02/22-rdf-syntax-ns#" xmlns:svg="http://www.w3.org/2000/svg" xmlns="http://www.w3.org/2000/svg" xmlns:sodipodi="http://sodipodi.sourceforge.net/DTD/sodipodi-0.dtd" xmlns:inkscape="http://www.inkscape.org/namespaces/inkscape" width="80mm" height="80mm" viewBox="0 0 80.000001 79.999999" id="svg8" inkscape:version="0.92.2 (5c3e80d, 2017-08-06)" sodipodi:docname="ttu_logo_wb.svg"><defs id="defs2"><clipPath id="clipPath831" clipPathUnits="userSpaceOnUse"><path inkscape:connector-curvature="0" id="path829" d="M0 612H792V0H0z"/></clipPath></defs><g inkscape:label="Layer 1" inkscape:groupmode="layer" id="layer1" transform="translate(107.40531,-113.60631)"><g id="g1475" transform="matrix(0.94572927,0,0,0.94572927,-7.3455529,6.3365408)" style="stroke-width:1.05738509"><path d="M-105.8017 113.42545h84.590805v84.590805H-105.8017z" id="rect827" style="opacity:1;fill:#ffffff;fill-opacity:1;stroke:none;stroke-width:2.11477017;stroke-linecap:round;stroke-miterlimit:4;stroke-dasharray:none;stroke-dashoffset:0;stroke-opacity:1"/><g id="g823" inkscape:label="TTU_DblTalt_c2C" transform="matrix(0.35277777,0,0,-0.35277777,-203.15244,280.83538)" style="stroke-width:1.05738509"><g id="g825" style="stroke-width:1.05738509"><g id="g827" clip-path="url(#clipPath831)" style="stroke-width:1.05738509"><g id="g833" transform="translate(418.6738,344.8252)" style="stroke-width:1.05738509"><path d="M0 0C.232.0.439.017.439.294.439.519.235.56.046.56H-.327V0zm-.327-1.02h-.276V.794h.69c.428.0.64-.16.64-.516.0-.325-.206-.466-.469-.499L.771-1.02H.465l-.479.788h-.313zm-1.265.911c0 .903.733 1.566 1.596 1.566.855.0 1.586-.663 1.586-1.566.0-.911-.731-1.575-1.586-1.575-.863.0-1.596.664-1.596 1.575m1.596-1.312c.711.0 1.269.557 1.269 1.312.0.743-.558 1.304-1.269 1.304-.718.0-1.279-.561-1.279-1.304.0-.755.561-1.312 1.279-1.312M56.82-55.727v-.667l.999-.15 3.258-5.713v-3.471l-.263-.23-1.113-.08v-.672h4.239v.672l-1.113.08-.262.23v3.683l3.408 5.452.996.196v.67h-3.337v-.67l.998-.163.15-.23-2.753-4.369-2.506 4.5.167.18.932.082v.67zm-19.795.003v-2.523h.9l.23 1.523.229.248h2.505v-9.252l-.28-.229-1.098-.081v-.67l4.276-.002v.672l-1.098.081-.279.229v9.252h2.504l.233-.248.226-1.523h.902v2.52zM22.206-66.708h4.159v.672l-1.049.079-.276.229v9.025l.276.227 1.049.082v.67h-4.157v-.67l1.047-.082.277-.227v-9.025l-.277-.229-1.049-.079zM3.685-66.38c.918-.358 1.802-.524 2.884-.524 2.619.0 4.322 1.276 4.322 3.275.0 1.376-.67 2.128-2.652 2.931-1.212.508-1.638.705-1.981.914-.622.411-.866.82-.866 1.492.0 1.18.881 1.949 2.225 1.949.572.0.982-.098 1.473-.344l.247-.279.247-1.556h.849v2.538c-1.065.327-1.869.458-2.75.458-2.342.0-3.815-1.245-3.815-3.192.0-1.31.668-2.049 2.668-2.883 1.525-.652 1.639-.703 2.045-.979.575-.38.786-.768.786-1.444.0-1.276-.916-2.012-2.504-2.012-.72.0-1.245.114-1.801.377l-.213.281-.198 1.877H3.685zm-18.154 9.905h.783c2.114.0 3.013-.686 3.013-2.289.0-1.589-.883-2.311-2.835-2.311-.195.0-.405.0-.964.03zm-2.687.755v-.672l.933-.083.28-.228-.001-9.023-.282-.226-.933-.084v-.672h3.898v.672l-.931.084-.28.226v3.895c.559.035.639.035.866.035.934.0 1.507-.18 1.917-.623.345-.375.523-.766.836-1.945.507-1.949 1.063-2.475 2.602-2.475.411.0.639.033 1.295.147v.625c-1.738-.018-2.146.308-2.538 2.109-.343 1.637-.819 2.197-2.195 2.571 1.852.457 2.653 1.296 2.653 2.798.0 1.902-1.31 2.869-3.946 2.869zm-19.258-10.982 8.431-.006.002 2.672h-.852l-.277-1.656-.228-.26h-4.391v4.584l2.687-.002.229-.244.166-1.18h.767v3.602h-.767l-.166-1.196-.229-.224h-2.687v4.137h3.785l.226-.247.23-1.387h.919v2.389h-7.842v-.672l.933-.083.278-.227-.002-9.024-.276-.226-.936-.082zM-57.27-55.72v-.67l1.047-.181 3.846-10.215h1.128l3.767 10.215 1.015.181v.67h-3.259v-.67l1.017-.085.164-.227-2.967-8.25-3.076 8.25.182.227.949.085v.67zm-14.183-10.982h4.159v.668l-1.047.084-.279.228v9.02l.28.231 1.046.081v.671h-4.157v-.671l1.047-.081.278-.231-.003-9.02-.276-.228-1.048-.084zm-21.596.0h3.451v.668l-.981.133-.293.312v8.184l6.236-9.297h1.081l.001 9.887.295.296.983.129v.671h-3.44v-.671l.984-.129.294-.296v-7.695l-5.583 8.386v.405h-3.078v-.671l1.048-.079.294-.23v-8.89l-.294-.312-.997-.127zm-21.253 10.988v-.672l.933-.083.278-.23v-6.073c0-1.215.131-1.95.459-2.523.588-1.013 1.914-1.601 3.632-1.601 1.476.0 2.703.44 3.391 1.208.523.605.734 1.423.734 2.916v5.959l.299.294.98.129v.671l-3.455.005v-.672l.984-.131.311-.296v-5.814c0-2.272-.884-3.257-2.931-3.257-2.014.0-2.897.985-2.897 3.257v5.928l.278.23 1.015.083v.672zm160.134 41.789v-1.325l1.84-.159.549-.454-.003-17.785-.546-.451-1.842-.165v-1.322h7.845v1.322l-2.002.165-.549.451v8.681h11.105v-8.684l-.548-.453-2.004-.16v-1.325h7.848v1.325l-1.842.16-.549.453.002 17.788.547.451 1.842.162v1.324H59.68v-1.324l2.001-.162.548-.451v-7.619H51.124v7.619l.551.454 2 .159v1.325zm-2.609-15.819h-1.745l-.776-3.582-.514-.519c-1.067-.353-1.811-.419-2.812-.419-5.261.0-8.425 3.65-8.425 9.621.0 5.811 3.006 9.394 7.909 9.394 1.291.0 2.134-.194 3.648-.84l.419-.579.486-2.939h1.81v4.972c-2.841.871-4.394 1.096-6.394 1.096-6.648.002-11.203-4.485-11.203-11.069.0-3.131 1.034-5.909 2.971-8.008 2.166-2.29 4.746-3.358 8.136-3.358 2.194.0 4.037.324 6.49 1.129zM8.002-35.582h16.626v5.257H22.95l-.551-3.26-.45-.514h-8.652v9.036h5.292l.455-.482.319-2.323h1.519l.004 7.102h-1.523l-.319-2.36-.455-.448h-5.292v8.165h7.456l.452-.484.455-2.744h1.806v4.713H8.002v-1.323l1.842-.162.551-.454V-33.647L9.843-34.099 8.002-34.26zm-19.817 21.66v-4.971h1.776l.45 3.002.452.483 4.941-.001-.001-18.238-.551-.452-2.161-.161v-1.322h8.424v1.322l-2.162.161-.549.452.002 18.238h4.939l.452-.484.45-3.001h1.776l.002 4.97zM-35.51-34.937c1.807-.711 3.552-1.032 5.682-1.032 5.165.0 8.521 2.518 8.521 6.456.0 2.712-1.322 4.196-5.227 5.777-2.392 1.002-3.228 1.389-3.905 1.81-1.23.805-1.71 1.613-1.71 2.937.0 2.323 1.739 3.841 4.387 3.841 1.134.0 1.938-.195 2.907-.681l.484-.547.484-3.068h1.68v5.005c-2.098.645-3.682.905-5.423.905-4.617.001-7.521-2.453-7.521-6.294-.003-2.582 1.319-4.033 5.262-5.681 2.999-1.292 3.223-1.388 4.034-1.938 1.126-.745 1.547-1.519 1.547-2.843.0-2.517-1.808-3.968-4.939-3.968-1.421.0-2.451.227-3.551.743l-.422.548-.385 3.712h-1.905zm-12.876 17.886 3.323-8.941h-6.521zm-.516 3.385-7.557-20.204-1.869-.388v-1.323h6.324v1.323l-2.098.161-.322.454 2.289 6.164h7.622l2.322-6.164-.223-.454-2.004-.161v-1.323h7.328v1.323l-1.937.388-7.746 20.204zm-29.794-.253v-1.323l2.129-.388 5.842-9.137-6.489-9.069-2.129-.422v-1.319l6.874-.004v1.323l-2.162.194-.193.582 5.1 7.233 4.551-7.329-.224-.45-2.165-.23v-1.323h8.167v1.323l-2.195.388-6.263 9.91 5.909 8.427 2.066.291.002 1.321h-6.587v-1.321l1.872-.258.291-.422-4.587-6.52-4.225 6.65.256.388 1.938.162v1.323zm-18.853-21.658h16.623v5.262h-1.678l-.548-3.261-.452-.518h-8.651v9.037h5.293l.453-.483.322-2.321h1.517v7.099h-1.517l-.322-2.358-.453-.452h-5.293v8.169h7.458l.452-.486.452-2.742h1.807v4.712h-15.462l-.001-1.323 1.84-.161.55-.451-.001-17.789-.55-.451-1.839-.159zm-19.818 21.66v-4.971h1.775l.451 3.001.453.486h4.938v-18.24l-.549-.453-2.164-.159v-1.324h8.428v1.324l-2.164.159-.547.451v18.242l4.937-.002.455-.484.449-3.001h1.777v4.969zM14.986 57.736H4.279L4.293 41.974H-10.048V23.628h7.13V-1.56h-39.273v25.212h7.142l.014 18.322h-14.456v15.762h-10.843v28.829h75.32z" style="fill:#231f20;fill-opacity:1;fill-rule:nonzero;stroke:none;stroke-width:1.05738509" id="path835" inkscape:connector-curvature="0"/></g><g id="g837" transform="translate(419.373,390.4609)" style="stroke-width:1.05738509"><path d="M0 0H-7.252L-8.959-1.739H1.658V12.136L0 10.469zm-19.563 3.556v-34.325h.029l1.763 1.681h-.015V1.95h3.548v-27.474h7.178v-.044-18.072h-32.217l-1.685-1.665H-5.336V-23.9h-7.158V1.95h3.535l1.707 1.606zm5.317-41.569h-17.643l-1.74-1.767h21.206v10.692h-.007l-1.806-1.683h-.01v-.006zm.008 60.498V12.136h1.744v8.563h7.142l1.62 1.786zM10.844 15.912H-3.732l-1.62-1.891h17.919v25.018l-1.723-1.891zm-53.566 6.536V15.912H-56.963L-59 14.021h18.001v6.678h7.351l1.718 1.747zM-28.389 1.95-26.698 3.556H-38.969V0h-7.291l-1.634-1.739h10.695V1.95h3.503 1.766zm96.222-92.991c0-.552-.447-.999-.999-.999h-183.116c-.552.0-1 .447-1 .999.0.553.448 1 1 1H66.834c.552.0.999-.447.999-1" style="fill:#a1a1a4;fill-opacity:1;fill-rule:nonzero;stroke:none;stroke-width:1.05738509" id="path839" inkscape:connector-curvature="0"/></g><g id="g841" transform="translate(385.7441,361.373)" style="stroke-width:1.05738509"><path d="M0 0H5.24V31.038H1.699V3.592H-5.648V-14.552L0-8.709zm1.74-1.709v-7.216l3.434 3.678h5.28V36.058L6.931 32.644V-1.709zm14.124 1.715h5.342L21.204.003h.005v-1.499l5.36 5.016V3.563H19.391L15.843.0h.014zM1.699 51.534v-10.31h8.934v18.015zm35.524 7.705-7.327-7.666V45l7.327 6.941zm-53.716.0h27.126.029 26.561l7.25 6.997H-23.334V45l6.841 6.815zM30.16 36.058 26.377 32.644v-3.556l3.783 3.554zM19.383-1.689v.006h-5.291l-3.638-3.564h5.511zm-28.28 34.331-3.734-3.554v10.469h46.26L30.16 36.058H10.454-8.897z" style="fill:#ee3123;fill-opacity:1;fill-rule:nonzero;stroke:none;stroke-width:1.05738509" id="path843" inkscape:connector-curvature="0"/></g><g id="g845" transform="translate(385.7441,361.373)" style="stroke-width:1.05738509"><path d="m0 0v-8.709-1.983l1.74 1.767v7.216H6.931V32.644L5.24 31.038V0zm19.383-1.683h.01L21.199.0 21.204.003 21.206.006H15.864L15.857.0 14.095-1.681 14.092-1.683zm6.994 34.327-1.707-1.606v-3.689l1.707 1.739zM-5.648 3.592H1.699V31.038H-.067V5.212h-7.266v-21.429l1.685 1.665zM10.633 41.224H1.699v10.31L-.02 49.787V41.224H-14.265V27.349l1.634 1.739v10.469h46.26l1.658 1.667H21.135 19.391zm-36.004 1.885 2.037 1.891v21.236h67.807l1.723 1.891H-25.371zM29.896 45 28.277 43.109v6.678l1.619 1.786z" style="fill:#ffffff;fill-opacity:1;fill-rule:nonzero;stroke:none;stroke-width:1.05738509" id="path847" inkscape:connector-curvature="0"/></g><g id="g849" transform="translate(488.7979,279.6045)" style="stroke-width:1.05738509"><path d="M0 0C.232.0.439.017.439.294.439.519.235.56.046.56H-.327V0zm-.327-1.02h-.276V.794h.69c.428.0.64-.16.64-.516.0-.325-.206-.466-.469-.499L.771-1.02H.465l-.479.788h-.313zm-1.265.911c0 .903.733 1.566 1.596 1.566.855.0 1.586-.663 1.586-1.566.0-.911-.731-1.575-1.586-1.575-.863.0-1.596.664-1.596 1.575m1.596-1.312c.711.0 1.269.557 1.269 1.312.0.743-.558 1.304-1.269 1.304-.718.0-1.279-.561-1.279-1.304.0-.755.561-1.312 1.279-1.312" style="fill:#231f20;fill-opacity:1;fill-rule:nonzero;stroke:none;stroke-width:1.05738509" id="path851" inkscape:connector-curvature="0"/></g></g></g></g></g></g></svg>