<svg xmlns:dc="http://purl.org/dc/elements/1.1/" xmlns:cc="http://creativecommons.org/ns#" xmlns:rdf="http://www.w3.org/1999/02/22-rdf-syntax-ns#" xmlns:svg="http://www.w3.org/2000/svg" xmlns="http://www.w3.org/2000/svg" xmlns:sodipodi="http://sodipodi.sourceforge.net/DTD/sodipodi-0.dtd" xmlns:inkscape="http://www.inkscape.org/namespaces/inkscape" width="1902.7457" height="1902.7457" viewBox="0 0 1902.7457 1902.7457" id="svg4" sodipodi:docname="briefcase.svg" inkscape:version="0.92.2 (5c3e80d, 2017-08-06)"><defs id="defs8"/><path d="m775.1441 598.91533h352.4577V510.80095H775.1441zm793.0295 440.57187v330.429q0 45.434-32.3545 77.7885-32.3544 32.3545-77.7884 32.3545H444.71516q-45.43398.0-77.78848-32.3545-32.3545-32.3545-32.3545-77.7885v-330.429h462.60051v110.143q0 17.8983 13.07948 30.9777 13.07948 13.0796 30.97772 13.0796H1061.516q17.8982.0 30.9777-13.0796 13.0795-13.0794 13.0795-30.9777v-110.143zm-528.6863.0v88.1144H863.25848v-88.1144zm528.6863-330.42889v264.3432H334.57218v-264.3432q0-45.43398 32.3545-77.78848 32.3545-32.3545 77.78848-32.3545H687.02972V488.77236q0-27.53574 19.27502-46.81077 19.27502-19.27502 46.81076-19.27502h396.5148q27.5358.0 46.8108 19.27502 19.275 19.27503 19.275 46.81077v110.14297h242.3146q45.434.0 77.7884 32.3545 32.3545 32.3545 32.3545 77.78848z" id="path2" style="fill:#ffffff;fill-opacity:0.3137255;stroke-width:0.68839359" inkscape:connector-curvature="0"/><circle style="opacity:1;fill:none;fill-opacity:1;stroke:#ffffff;stroke-width:50;stroke-linecap:round;stroke-miterlimit:4;stroke-dasharray:none;stroke-dashoffset:0;stroke-opacity:0.3137255" id="path817" cx="951.37286" cy="951.37286" r="926.37286"/></svg>