<svg xmlns:dc="http://purl.org/dc/elements/1.1/" xmlns:cc="http://creativecommons.org/ns#" xmlns:rdf="http://www.w3.org/1999/02/22-rdf-syntax-ns#" xmlns:svg="http://www.w3.org/2000/svg" xmlns="http://www.w3.org/2000/svg" xmlns:sodipodi="http://sodipodi.sourceforge.net/DTD/sodipodi-0.dtd" xmlns:inkscape="http://www.inkscape.org/namespaces/inkscape" width="80mm" height="80mm" id="svg908" viewBox="0 0 302.36221 302.36221" sodipodi:docname="zju_logo_wb.svg" inkscape:version="0.92.3 (2405546, 2018-03-11)"><defs id="defs912"/><path style="opacity:1;fill:#ffffff;fill-opacity:1;stroke:none;stroke-width:5.44183922;stroke-linecap:round;stroke-miterlimit:4;stroke-dasharray:none;stroke-dashoffset:0;stroke-opacity:1" id="rect1559" d="M39094161e-15-35209823e-13h302.36221v302.36221h-302.36221z"/><path style="fill:#00468e;fill-opacity:1;stroke-width:3.77952766" d="m145.88106 267.62304c-9.16816-.69053-18.56892-2.1052-23.53588-3.54183-9.96965-2.88356-15.7127-5.04951-22.774253-8.58902-5.698332-2.85624-14.107001-7.83028-15.238805-9.01436-.108841-.11401-.727617-.54493-1.375058-.95782-1.218759-.77731-1.765543-1.18851-2.924673-2.19954-.374366-.32662-2.365406-1.97491-4.424524-3.66306-3.760116-3.08255-4.457488-3.75915-9.895875-9.60071-3.50966-3.76979-4.319755-4.71499-6.986355-8.15143-2.031082-2.61737-7.641816-10.82834-7.641816-11.18326.0-.10394-.79453-1.53254-1.765627-3.17511-4.690956-7.93436-9.614655-20.72859-11.823453-30.72308-6.436031-29.12214-1.947104-58.287 12.945897-84.110261 1.506624-2.61238 3.311221-5.55128 4.010215-6.53091.698991-.97968 1.948842-2.76079 2.777444-3.95809 7.57514-10.94623 21.444286-23.51457 34.624278-31.37687 11.970975-7.14105 27.312885-12.86909 38.828895-14.49705 1.61119-.22767 4.79959-.70479 7.08541-1.06005 4.87841-.75813 21.07124-.8988 25.52994-.22161 1.52389.23141 3.48318.51952 4.35398.64028 22.19515 3.07838 43.98846 13.12449 60.53508 27.90502 2.17316 1.94123 8.8433 8.59852 10.52062 10.50044 13.15605 14.91722 23.22366 35.224361 26.89504 54.249111 2.88459 14.94738 2.82741 31.62235-.15756 46.03122-2.53325 12.22751-7.08026 24.2535-13.15845 34.80188-2.32574 4.03619-9.37909 14.23303-10.46199 15.12466-.13229.1091-1.13299 1.26661-2.22393 2.57275-2.23515 2.67615-9.9738 10.581-11.78501 12.03812-.65309.52546-1.73152 1.41604-2.39652 1.97904-.66496.56308-1.81024 1.46911-2.54497 2.01329-.7347.5443-2.14991 1.61388-3.14483 2.37688-1.98559 1.52282-3.18277 2.31263-9.32944 6.15494-9.67427 6.04734-25.314 11.97551-37.4824 14.20749-7.75634 1.42262-21.21174 2.39772-27.03515 1.9591zm18.99904-5.46783c18.98293-2.46246 36.45175-9.3794 51.9865-20.58461 5.9179-4.26856 7.83718-5.94094 14.12889-12.31104 15.15078-15.33964 25.49596-34.69077 29.831-55.80014 1.59744-7.77873 2.14224-13.48674 2.13445-22.3634-.014-14.04149-1.93984-25.21129-6.54827-37.94726-1.1829-3.26908-1.24208-3.3509-1.60492-2.21731-.48427 1.5129-1.80168 2.95813-2.6965 2.95813-1.3166.0-1.14719.72383.33937 1.45051 1.43291.70043 1.48758.80243 1.52374 2.8468.0485 2.75515-.33234 3.085-5.5554 4.80843-3.06571 1.01151-4.16082 1.54289-4.07466 1.97701.13603.68493-2.36455 3.56234-3.09571 3.56234-.26977.0-1.44316-.50128-2.60815-1.11365-2.73228-1.43654-7.70889-2.75567-8.27188-2.19263-.2824.28217-.014.79561.86098 1.65227 1.12613 1.10096 1.22008 1.35389.82509 2.22085-.43756.96025-2.85495 2.55357-2.85495 1.88173.0-.18823-.46519-.55443-1.03386-.81351-1.23513-.56274-1.34748-.49118-4.70931 3.01144-3.15364 3.28544-4.06489 3.3325-6.90512.35691-2.59867-2.72284-4.5533-5.75135-3.87624-6.00585.27164-.10255 1.37034.25996 2.44127.80435 2.47702 1.25935 2.9037 1.23461 4.55239-.2635 1.30168-1.18313 1.32463-1.25215.59372-1.78699-.41795-.30591-1.73993-.82858-2.93725-1.16134-1.19733-.33269-2.62226-.73961-3.16654-.90399-1.74153-.52594-3.64015-5.048-2.98547-7.11071.43899-1.38348 1.44462-1.35748 2.95471.0763 1.78949 1.69912 2.97267 2.34507 7.15542 3.90651 3.05432 1.14015 4.24265 1.31679 7.52046 1.11791.54425-.0302 1.79106.29278 2.7707.72341 2.06394.90781 3.89977 1.2167 3.97138.66808.0826-.63354-4.34911-2.06336-7.96847-2.57083-3.49308-.48968-5.1201-1.37148-5.66876-3.07181-.12525-.3877-.77703-1.01693-1.44878-1.39817-1.19935-.68064-1.40466-1.7259-.32115-1.6361.30294.0253 3.82299.8762 7.82187 1.89129 6.88191 1.74692 7.29929 1.80796 7.80475 1.14175.79342-1.04585.7045-1.17317-1.0111-1.44749-.86366-.1379-1.9187-.62504-2.3446-1.0822-.42591-.45735-.96192-.71516-1.19126-.57339-.22943.14187-1.13358.0651-2.0094-.17114-1.39907-.3766-1.59238-.56945-1.59238-1.5876.0-.67755.64981-2.1643 1.56462-3.57963.86057-1.33145 1.83838-3.36249 2.17297-4.51346.7161-2.4633 1.41448-3.17135 2.78818-2.82656.94958.23827.9968.38871 1.04158 3.30969.06 3.91094.0674 3.86612-1.04354 6.32544l-.93864 2.07805.8687-.005c1.23308-.009 1.75768-.44019 1.91725-1.57722.17395-1.23805 1.66167-1.5439 2.7443-.56418.72957.66029.75897.64711.75897-.34075.0-.56518.17816-1.13757.39596-1.27217.21773-.13484.39598-.74666.39598-1.36021.0-2.12786.8616-2.24958 4.1049-.58002l2.9318 1.50923 2.58923-.51471c1.42409-.28269 3.13582-.39477 3.80382-.24785 1.43928.316 1.48323.5243-1.04312-4.94142-9.33141-20.188031-24.9813-37.406111-44.89824-49.397051-1.8807-1.13223-3.61731-2.05862-3.85917-2.05862-.24173.0-.44131-.13372-.44273-.29688-.005-.35998-.69391-.69301-7.51734-3.62617-10.03162-4.31229-16.7056-6.21761-29.10249-8.30829-5.75417-.97043-18.8326-1.26818-26.88995-.61214-1.81498.1477-11.31113 1.7482-13.86858 2.33734-8.99695 2.07255-22.24141 7.08569-28.102743 10.63717-.43541.26366-2.216556 1.32894-3.958136 2.36702-1.741578 1.03807-3.521263 2.10294-3.95487 2.36636-1.472858.89493-8.285631 6.00363-10.878777 8.15767-3.010046 2.50039-10.79575 10.29548-13.690761 13.70733-13.671467 16.11207-22.362892 36.155351-25.354206 58.469241-.886106 6.60995-.886295 20.16724-383e-6 26.81647 3.414507 25.62756 13.96266 47.28807 31.713463 65.12315 6.317951 6.34798 9.690396 9.17339 16.822057 14.09371 14.917206 10.29163 34.864176 17.35075 53.434786 18.91036 5.22955.43969 17.5072.15546 22.75923-.52566zm-15.40573-6.21646c-1.9982-.46847-2.56627-.96283-3.48316-3.03096-.69383-1.56491-.72943-2.35257-.47008-10.39009l.28047-8.69678h1.36382 1.36382l-.13696 9.05803c-.1276 8.45903-.0868 9.11341.61725 9.89532.53693.59622 1.22073.83555 2.37487.83125 3.17823-.014 3.46724-.77296 3.67017-9.66441.22007-9.6453.23515-9.72436 1.85619-9.72436h1.2968l-.15101 6.62984c-.18096 7.93293-.60952 11.67659-1.49071 13.02139-.70811 1.08073-3.47157 2.51591-4.74783 2.46588-.43524-.021-1.49015-.19478-2.34388-.39526zm11.99791-.13064c-.0557-.0253-1.82384-22.17043-1.77472-22.2295.0187-.0253.77943-.13929 1.68693-.25493l1.64994-.21047 2.84427 4.7078c1.56438 2.58927 2.96337 4.70774 3.10885 4.70774.14539.0.0515-1.82568-.20906-4.05709-.71153-6.09622-.71054-6.10783.55445-6.35084.59866-.11519 1.13252-.16599 1.18632-.11308.11542.11308 2.82723 21.7774 2.7355 21.85451-.0327.0302-.59699.16505-1.25008.30189l-1.18744.24936-3.76021-7.2933c-2.06816-4.01137-3.78929-7.26421-3.82483-7.22855-.0375.0354.18191 3.18175.48291 6.99144.74215 9.38961.81602 8.59269-.81411 8.783-.76195.089-1.40486.15287-1.42874.14235zm-35.28294-1.28188c-.38098-.0995-.69263-.50279-.69263-.89608.0-.60532-.31885-.70717-2.07802-.66367-2.62533.0651-3.90668-.8178-5.0758-3.49676-.67923-1.55652-.80974-2.42178-.62784-4.16228.79517-7.60777 5.12791-13.86135 9.60376-13.86135 2.22375.0 3.33315.53934 4.44383 2.16025.99379 1.45034 1.64077 5.47058.94911 5.89805-.22265.13743-.95756.13977-1.63302.005-1.16544-.23318-1.22809-.34075-1.22809-2.11391.0-2.87012-1.82712-3.95197-4.56642-2.70389-1.93534.8818-4.61571 7.70293-4.68865 11.93187-.0373 2.06656.0781 2.41453 1.06734 3.26544 1.94362 1.67183 3.848 1.08558 5.04618-1.5534 1.04318-2.29759.9777-2.5448-.81661-3.08235-1.60112-.47959-1.94577-1.14209-1.20423-2.31445.55521-.87786 6.0767.92656 5.79836 1.89494-1.3619 4.73889-3.11314 9.95605-3.3297 9.91985-.151-.0253-.58655-.12713-.96757-.22662zm49.64113-12.12701c-1.5599-5.50398-2.83621-10.29496-2.83621-10.64659.0-.57246 2.17026-1.43467 2.57999-1.02497.0817.0817 1.47689 4.77417 3.10056 10.42773 2.06432 7.18806 2.81462 10.35249 2.49493 10.52272-.25149.13368-.91745.35235-1.48008.48563l-1.02297.24279zm-65.58086 7.00221-1.19574-.59731.86385-7.59049c.47512-4.17481.82778-7.6275.78372-7.67268-.0439-.0454-1.47666 2.84085-3.18357 6.4134l-3.10346 6.49561-1.50342-.767-1.50341-.76701 4.97132-9.80247c2.73423-5.39135 5.10584-9.95122 5.27026-10.13301.31667-.35034 2.76818.74347 2.75991 1.23128-.003.15756-.27184 3.29785-.59813 6.97811-.32631 3.68031-.51909 6.76559-.42844 6.85631.0907.0908 1.53071-2.43067 3.20011-5.60292 1.66939-3.17232 3.24476-5.76148 3.5008-5.75376.2562.009.83874.23061 1.29474.49472.80647.46745.69311.75933-4.14791 10.67295-2.73737 5.6057-5.15882 10.18078-5.38098 10.16685-.22218-.014-.94201-.29431-1.59967-.62258zm73.65381-9.71732c-3.40855-5.45339-6.14429-9.94709-6.07941-9.98602.0648-.0354.63659-.29379 1.27053-.56746 1.44143-.6211 1.14123-.95156 5.78245 6.36614 2.03431 3.20751 3.76586 5.76472 3.84791 5.68268.11683-.11706-.90512-7.40226-2.01323-14.34873-.0948-.59526.15101-.98613.81009-1.28639 1.29436-.58971 1.61261-.545 1.85984.26148.28187.92057 3.40332 20.93162 3.40332 21.82015.0.39878-.57063.96566-1.34204 1.33355l-1.34205.64001zm-87.004233 3.40903c-.59866-.3246-1.08848-.76706-1.08848-.98404.0-.21702.53435-1.45297 1.18744-2.74674.65309-1.29373 1.18743-2.6009 1.18743-2.90468.0-.30388-.73475-1.03864-1.632796-1.63301l-1.632804-1.08049-2.475016 2.45298c-2.118109 2.09929-2.58655 2.39334-3.248466 2.03913-2.092501-1.11987-2.068558-1.15497 6.320771-9.25698 4.406491-4.25553 8.129044-7.85933 8.272344-8.00844.14332-.1489.97863.20438 1.85631.78502 1.35996.89999 1.54416 1.18216 1.24652 1.9098-4.52861 11.07026-8.302653 19.84624-8.566933 19.92125-.18581.0529-.82766-.16903-1.42632-.49371zm4.212463-12.7399c2.53666-5.90979 2.59259-5.74911-.81747-2.34842l-3.098123 3.08964 1.18743.96549c.6531.531 1.2765.96437 1.38535.96305.10884-93e-5.713113-1.20269 1.342813-2.66976zm100.19669 12.43761c-.30388-.47047-2.87813-4.85297-5.72023-9.73846l-5.16736-8.88281 4.84334-2.63655c4.80133-2.61369 4.84952-2.62976 5.54902-1.84322.38806.43616.64919.96304.58003 1.17035-.0693.20742-1.67714 1.20457-3.57338 2.21607-1.89628 1.01138-3.44862 1.98601-3.44966 2.16572-94e-5.1798.72302 1.56803 1.60908 3.08518l1.61098 2.75838 3.42428-1.82159c3.17695-1.69006 3.46077-1.77158 3.93036-1.12938.91097 1.24584.54697 1.69894-2.66038 3.31155-1.74156.8757-3.16649 1.74492-3.16649 1.93169.0.44071 3.58733 6.77622 3.83707 6.77622.20322.0 4.63056-2.39552 6.73058-3.6419l1.26603-.7514.6091 1.17781.6091 1.17789-5.15432 2.76506c-5.12825 2.75111-5.15709 2.7608-5.70715 1.90939zm7.94682-13.78874c-2.98229-4.20706-5.98333-8.40985-6.66896-9.33946l-1.24654-1.69029.94523-.68459c5.43274-3.93488 7.31603-4.60375 9.89905-3.51558 3.18186 1.34048 4.29127 3.48677 3.82725 7.40454l-.22873 1.92842 4.11848 3.27267 4.11845 3.27272-.8434.89782c-.46376.49369-1.02124.89773-1.23859.89773-.21726.0-2.16362-1.44733-4.32501-3.21633l-3.92992-3.21634-.98432.98428-.98432.98427 2.66786 3.64861 2.66785 3.64851-1.18613 1.18619-1.18617 1.18615zm1.44993-5.53036c1.37478-.73576 2.23904-2.03092 2.25315-3.37642.009-.97892-.31369-1.52714-1.46238-2.47387-1.56253-1.28796-2.78006-1.50856-4.18268-.75792-2.0558 1.10022-2.0453 1.33362.19222 4.26498 1.15593 1.51448 2.15787 2.76338 2.22663 2.77533.0686.014.50663-.18214.97312-.4321zM83.616637 233.70409c-.477297-.50802-.867761-1.06381-.867761-1.23505.0-.17114 1.569459-2.20818 3.48769-4.52635 1.918233-2.3182 4.954951-6.0406 6.748275-8.272 1.793315-2.23141 3.398894-4.0571 3.567943-4.0571.534983.0 2.121213 1.90484 1.893313 2.27359-.5832.9436-13.386602 16.54153-13.653979 16.63406-.169219.0586-.698205-.30895-1.175481-.81715zm-8.190311-6.42083c-.870784-.31601-1.626658-.57767-1.679718-.58094-.05305-.003-.63194-.74515-1.286394-1.6486-.916127-1.26465-1.188525-2.06161-1.183862-3.46335.0092-2.62747.400112-3.08271 1.892418-2.20121 1.020085.60259 1.167928.88852.998685 1.93143-.287487 1.77149 1.28744 3.39673 3.291634 3.39673 1.380324.0 1.908384-.4286 8.079974-6.56193l6.603135-6.5619.844717 1.07394c.464575.59063.844721 1.19558.844721 1.34446.0.53069-12.094507 12.1852-13.259737 12.77735-1.895137.96302-3.444447 1.1118-5.145573.49419zm63.029314-.81701c-.0525-.0505-.80751-.2018-1.67825-.3382-1.83997-.28827-4.19458-2.0352-4.71644-3.49898-.48573-1.36232.53851-2.90883 2.51143-3.79212l1.49352-.66868-.92709-.69931c-1.89494-1.42937-1.56275-3.68.71718-4.85904.91217-.47148 2.01411-.598 4.24326-.48611 3.33331.16716 4.92392.78475 6.09466 2.36715 1.09463 1.47959.65441 2.83444-1.2997 3.99964l-1.57604.93986 1.1769.87011c3.17225 2.34536.89577 5.86665-3.97201 6.14393-1.08483.0616-2.0152.0717-2.06742.0253zm3.59055-2.1602c1.71886-1.60131.8652-3.24472-2.41779-4.65471-1.56855-.67355-2.39545-.59415-3.5893.34479-1.13119.88983-1.36993 2.48078-.53557 3.56835 1.20163 1.56612 5.17425 2.0163 6.54266.74145zm1.08216-6.89333c1.21725-1.21723 1.22157-1.8221.0187-2.95004-1.16256-1.09215-3.87413-1.52941-5.17315-.83421-1.94914 1.04316-1.31278 2.91761 1.39018 4.09486 1.95129.84991 2.66014.79141 3.76208-.31047zm12.84595 7.92318c0-.87843.12197-.94485 1.3634-.74344 2.32168.37709 4.82031-.21 6.13813-1.44073 1.48125-1.38372 1.67957-3.02384.31601-2.61142-3.25003.98286-6.54234.53072-8.3528-1.14717-1.99985-1.85345-1.11863-5.27874 1.73819-6.75606.66445-.34378 2.21289-.58583 3.74492-.58583 5.1519.0 7.38846 2.57615 6.7403 7.76356-.49969 3.99984-3.91254 6.48572-8.90409 6.48572-2.68644.0-2.78386-.0301-2.78386-.96463zm8.79308-6.65673c.54307-.81745-.0768-3.19961-1.10508-4.24723-1.32716-1.3521-4.07062-1.359-5.50251-.014-1.6856 1.58353-1.20009 4.00682.981 4.89675.95592.3897 5.2689-.0974 5.62659-.63572zm61.55834 4.46102c-1.92832-.36093-2.07578-.54671-1.51338-1.90444.44742-1.0797.56549-1.12411 2.55463-.9592 1.95932.16248 2.15113.0955 3.16631-1.11128.86683-1.03016 1.03008-1.5281.82509-2.51694-.67713-3.26629-3.66068-3.98322-8.16351-1.96156-4.40012 1.9755-7.65123 1.23758-9.23296-2.09567-.93864-1.97795-.58955-4.83022.81676-6.67397 1.18203-1.54971 3.48154-2.39173 5.47935-2.00643 1.99629.38517 2.26548.69428 1.76343 2.02591-.41464 1.09927-.54981 1.1592-2.33434 1.03224-2.32372-.16552-3.54918.80754-3.54918 2.81737.0 3.24598 2.58108 3.96301 6.7288 1.86926 4.65505-2.34987 9.43945-.97175 10.8775 3.1332 1.67681 4.7866-2.33542 9.30347-7.4185 8.35151zm-109.34763-4.55227c-1.95453-1.19418-3.53588-2.35195-3.51412-2.57275.0223-.22054.0663-.58189.099-.80234.0328-.22054.74039.0302 1.57275.55453l1.51339.9554 2.1479-3.78159c1.18131-2.0799 2.19989-3.91049 2.26347-4.06793.0636-.15755-.51256-.65711-1.28042-1.11008-.90241-.53252-1.31764-1.02809-1.17431-1.40166.194-.5051.40113-.50278 1.64396.014 1.04222.43564 1.65819.48663 2.30563.19174.64118-.2923 1.07655-.26149 1.58784.1126.65567.47957.54344.79998-1.61888 4.62441-1.27785 2.26009-2.66146 4.68483-3.07472 5.38837l-.75135 1.27918 1.3978.82475c.889.52451 1.31854 1.03144 1.17996 1.39253-.11968.31247-.3361.56786-.48102.56786-.14495.0-1.86227-.9771-3.81683-2.17128zm65.11988-4.70723c0-4.20814-.14539-6.57919-.40391-6.57919-.22193.0-1.99963.8015-3.95019 1.78114-1.95059.97968-3.70744 1.78115-3.90408 1.78115-.19688.0-.44503-.33469-.55213-.74414-.16084-.61424.69795-1.20799 4.91735-3.40067 2.81155-1.46108 5.37198-2.55672 5.6898-2.43476.47127.18074.57243 1.26464.54855 5.87451-.0375 7.17877-.30247 8.94763-1.45498 9.71121l-.89058.58998zM65.158838 214.0633c-1.863429-2.59424-3.387324-4.8652-3.386427-5.04661 929e-6-.1812 4.214594-2.94783 9.363766-6.14771l9.362131-5.81797 3.302256 4.58608c1.816239 2.52232 3.302252 4.74343 3.302252 4.93582.0.57164-1.996561 1.33522-2.304267.88124-2.637674-3.89141-4.601697-6.48558-4.910156-6.48558-.212717.0-1.589031.745-3.058517 1.65557l-2.671795 1.65563 2.390551 3.34208c2.265297 3.16696 2.351589 3.37054 1.646953 3.88577-.408946.29933-.954472.54368-1.212223.54368-.257702.0-1.387375-1.32896-2.510294-2.95335-1.122917-1.62437-2.175529-3.03611-2.339132-3.13723-.240287-.14842-5.959732 3.1385-6.633625 3.81237-.100952.10091 1.057973 1.89789 2.57549 3.99305 2.74827 3.79443 2.755736 3.81181 1.899202 4.4117-.472956.33168-.98776.60234-1.144008.60234-.156226.0-1.808723-2.12257-3.672157-4.71688zm166.019972-8.3927c-4.46282-2.81793-8.76929-5.51852-9.56997-6.00126l-1.45583-.87775.86738-1.07651.8674-1.07644 5.3382 3.34692c2.93595 1.84088 6.39762 4.01737 7.69254 4.83673 1.29492.8194 3.22591 2.03988 4.29105 2.71218l1.9366 1.22244-.92663 1.01859-.92657 1.01862zm-86.20606-5.14247-6.44966-9.90373 1.16497-1.32678c1.86908-2.12884 2.00017-5.44241.2833-7.15937-.30997-.30995-1.85436-.83483-3.43231-1.16674-2.83112-.59559-3.27538-.80739-4.96368-2.3664-.8736-.80666-2.51209-3.32112-2.51481-3.85914-62e-5-.16294 1.34924-.29684 3.00011-.29684 2.24599.0 2.95038-.12408 2.79801-.49471-.11167-.27209-.50873-1.40806-.88165-2.52433l-.67805-2.02965-2.93589-.18823c-3.55805-.22826-5.43973-1.36242-7.75654-4.67484l-1.51099-2.16025 4.21439-.26553c2.31792-.14586 4.2936-.34479 4.39038-.44171.0967-.0969-.14632-1.04596-.54001-2.1093l-.71593-1.9333-2.16646-.0948c-2.77622-.12221-6.61745-.86459-7.97318-1.5417-1.61012-.80419-5.05906-5.43955-4.48003-6.02114.14144-.14235 2.65497-.31702 5.58565-.38871 6.0588-.14795 5.78334.11519 3.87134-3.69008l-.92509-1.84096-5.25768-.15194c-6.45989-.18683-8.07839-.79831-10.48911-3.96497-.87786-1.15309-1.8028-2.49734-2.05545-2.98716l-.45937-.89058h7.16524c8.12365.0 7.52525.3468 5.86803-3.39974l-.77225-1.74582-4.23648-.0302c-2.33006-.0211-4.50364-.0868-4.83019-.15592-.32656-.069-1.39162-.24838-2.36684-.39831-.97522-.14936-2.34112-.50959-3.03532-.79967-1.42252-.59435-3.934803-3.05397-5.010314-4.90527l-.715049-1.23081 3.881553-.0302c2.13487-.0211 4.17137-.0868 4.52558-.15545.35422-.069 5.96486-.1887 12.4681-.26654l11.82409-.14141 2.18171 1.02347c3.25405 1.52652 5.09078 3.65485 7.30127 8.46033 1.05541 2.29445 2.0406 4.17178 2.18926 4.17178.14867.0.5734-1.1132.94388-2.47386 2.71246-9.96182 3.10277-10.98398 4.66721-12.22302 3.61051-2.85965 13.411-1.85649 18.42326 1.88572l1.04722.78187-4.23073 1.50736c-2.32691.82901-4.2925 1.62086-4.36796 1.75967-.16412.30189 3.81888 9.94558 4.10368 9.93544.10887-.005.73066-1.20448 1.38183-2.6681 1.64319-3.69349 4.56762-7.95975 6.54623-9.54979 3.4429-2.76669 3.75668-2.80874 20.97051-2.80874 8.48786.0 15.4325.0965 15.4325.21352.0.5774-1.64179 3.28872-2.63662 4.35427-2.57722 2.76049-5.53193 3.71255-11.06398 3.56519-2.15223-.0576-4.28413-.2313-4.7377-.38766-.71629-.24585-.93215-.005-1.64372 1.82375-.45064 1.15884-.94463 2.41864-1.09786 2.79961-.25947.64485.22896.69271 7.07587.69271h7.35465l-1.19254 2.078c-1.6958 2.9551-4.27421 5.23515-6.57539 5.81457-1.05788.26654-3.79891.43162-6.23044.3756l-4.34149-.1-1.07797 2.41396c-.59287 1.32777-.97401 2.51795-.84705 2.64491.12712.12713 2.1382.2306 4.46937.2306 2.33116.0 4.78882.11051 5.46145.24434l1.22294.24431-.62407 1.23972c-1.89635 3.76723-5.0124 5.46919-10.5728 5.7749l-3.90222.21445-.92836 2.47388-.92834 2.47381h4.53373c2.49356.0 4.53377.0698 4.53377.15499.0.0852-.31182.84434-.6927 1.6872-1.89657 4.19632-4.23149 5.67849-8.94553 5.67849h-2.91796l-.84654 2.21219c-.46564 1.21679-.84659 2.37451-.84659 2.57284.0.1983 1.41936.36044 3.15409.36044 3.61951.0 3.59752-.0572 1.31975 3.42578-1.50632 2.30332-2.8873 3.03204-6.60492 3.48515-3.50065.42707-4.49515 1.6916-4.21359 5.35929.0812 1.06141.65581 2.09047 1.88509 3.37778.76509.80122.74084.8506-5.20314 10.57124-3.28453 5.37147-6.06094 9.76561-6.16978 9.76486-.10886-62e-5-3.10028-4.45801-6.64759-9.90505zm-86.54943 4.43138-.602569-1.16527 4.705865-2.47634 4.705868-2.47633-1.434024-2.89811c-.788712-1.59399-1.527777-2.85014-1.642367-2.79149-7.196252 3.68208-9.211744 4.67624-9.275669 4.57538-.04292-.0676-.365027-.58325-.715727-1.1456l-.637664-1.02246 9.933285-5.11263c5.46331-2.81199 10.068501-5.16858 10.23376-5.23689.165285-.0681.58105.41848.92399 1.08157l.623535 1.20572-4.063678 2.03149c-2.235018 1.11725-4.141068 2.10318-4.23567 2.19093-.260632.2418 2.452723 5.68676 2.833822 5.68676.18254.0 2.119449-.90823 4.304214-2.01832 2.18477-1.11001 4.014187-1.95609 4.065363-1.88005.0512.0761.370732.58405.710104 1.12915l.617049.99094-10.223457 5.24839-10.223459 5.2484zm180.47383-7.8861c-3.91855-2.32921-7.95916-4.72195-8.97912-5.31717l-1.85454-1.08217-1.06973 1.96547c-1.09715 2.01585-1.15362 2.03358-2.84769.8931-.37866-.25493.0469-1.35085 1.73314-4.46618 3.46527-6.40098 3.14411-6.02101 4.49756-5.32114l1.15345.59644-.96257 1.68352c-.52939.92594-.96473 1.86457-.96735 2.08589-.003.221.93036.95084 2.07324 1.62144 1.14296.67053 5.14746 3.04243 8.89904 5.27079l6.82095 4.0517-.59709 1.15466c-.32819.63503-.63701 1.14206-.68587 1.12668-.0485-.014-3.29486-1.93369-7.21342-4.26303zm-131.87691.78479c-10.019973-9.49761-16.9304-22.29864-19.367808-35.87723-.964517-5.37327-.967004-16.73959-.0047-21.76971 2.621516-13.70379 8.676804-25.2282 18.336368-34.89776 8.36294-8.371581 20.16371-14.779671 31.64053-17.181551 10.97313-2.29648 23.20436-1.6952 33.53199 1.64835 8.49397 2.74989 18.24295 8.62895 24.6324 14.854501 9.73171 9.48205 15.77521 20.4872 18.66748 33.99325.8709 4.06697 1.02025 5.77388 1.03906 11.87439.014 3.92563-.19877 8.45752-.46896 10.09319-2.41139 14.58259-8.77934 26.72184-19.4397 37.05804l-3.29157 3.19154-.84367-.8205-.84363-.82042 4.55182-4.57331c2.50834-2.52005 5.65665-6.1884 7.01272-8.17083 12.25741-17.91941 14.48156-40.0966 6.00993-59.92488-4.16205-9.74149-11.83334-19.33159-20.34892-25.43881-4.96462-3.560511-4.78669-3.452681-9.29788-5.633821-5.01633-2.42524-4.87663-2.36821-8.59965-3.51144-6.97731-2.14251-10.886-2.72248-18.51357-2.74712-8.49566-.0303-12.51737.62076-20.97807 3.38131-2.34748.76594-8.99293 3.90985-11.6765 5.52403-5.61797 3.379281-14.06258 11.239911-17.9193 16.680241-5.068155 7.14909-9.339238 17.33885-10.821512 25.81744-.842237 4.81765-.949675 15.18384-.205108 19.79061 1.030511 6.37604 3.085096 12.62926 6.161156 18.75182 3.358731 6.68511 6.976194 11.56151 12.455744 16.79053l3.23346 3.08554-.7305.92869-.73049.92864zM49.197251 184.2155c-1.139356-3.14025-2.071563-5.80349-2.071563-5.91818.0-.11448.505284-.38465 1.122848-.59999.851648-.29683 3.503859-.0302 10.981207 1.11835 5.422096.83034 9.929298 1.43879 10.016003 1.35207.08672-.0864-.499759-1.87511-1.303217-3.97424-.803473-2.09915-1.407589-3.86063-1.342475-3.91441.67423-.55674 2.046687-.9999 2.280559-.73645.338324.38113 4.047766 10.50863 3.883056 10.60148-1.573022.8863-2.502244.84069-11.982425-.58761-5.442428-.82001-9.968933-1.41938-10.058899-1.33193-.08995.0874.562153 2.07425 1.449142 4.41524.886993 2.34095 1.494948 4.37732 1.351014 4.52516-.143911.14797-.709904.37963-1.2577.5145-.966079.23829-1.058215.0742-3.06755-5.46399zm199.199419-.65417c-2.49446-.9868-3.42184-1.12039-9.30163-1.33943-3.59199-.13368-7.18345-.24533-7.981-.24785-1.38771-.005-1.43753-.0515-1.1598-1.09307l.29032-1.08845 5.47123-.19783 5.47129-.19783-3.77856-3.46686-3.77855-3.46682.42404-1.38187c.23318-.76003.5388-1.38187.67899-1.38187.14022.0 2.71354 2.17756 5.71847 4.839 4.9137 4.35201 5.83265 4.99234 9.1322 6.36365l3.66872 1.52473-.43668 1.15676c-.52438 1.38925-.85579 1.38763-4.41909-.0253zM76.573727 141.64273c-2.061219-.68724-1.979663-.54904-3.763745-6.37921-.393196-1.28496-2.212096-5.5738-3.942716-9.29671-.87338-1.87881-.460335-2.59296.961059-1.66162 1.648316 1.08003 1.941427.2079 1.514621-4.50507-.321106-3.54627-.481232-4.13555-1.289163-4.745-.913507-.68901-.928806-.68175-1.571422.75156-.801764 1.78823-1.610451 2.50289-2.329454 2.05847-.369218-.22827-.459123-.73244-.285369-1.60105.139486-.69746.142858-1.96054.0075-2.8069-.240995-1.50721-.737647-2.18674-3.250369-4.44731-.980246-.88189-1.164129-1.26945-.866354-1.82585.556715-1.04025 2.55458-1.73749 4.13103-1.44178.791263.14843 1.466625.0848 1.613205-.15241.471845-.76341.979622-.4104 1.833787 1.27429.818037 1.61353 1.39416 2.25674 2.0329 2.26983.163296.003.296877-1.33947.296877-2.98402v-2.99023l-2.374876-2.75934c-1.306187-1.517601-2.37488-2.944541-2.37488-3.170951.0-.93976.892582-1.93715 2.764364-3.08888 1.895941-1.16651 1.985392-1.29983 1.985392-2.95792.0-2.08223.661482-2.80533 2.074721-2.268 1.266354.48158 1.503527 1.48135 1.223602 5.15833-.210705 2.76797-.159831 3.0547.672157 3.78636l.900134.7916-.300209-1.38535c-.165122-.76191-.383452-1.74553-.485171-2.18577-.243268-1.05313 1.154032-2.79281 2.977878-3.70751 2.202203-1.10447 3.623853-.25797 3.623853 2.15724.0 1.13117.309699 1.46283 3.067555 3.28475 6.023671 3.979451 5.93681 3.900151 6.802009 6.212621 1.558884 4.16648.726036 5.64048-2.111617 3.73721-4.253702-2.85314-8.529525-5.5575-9.183566-5.80854-.60279-.23119-.574844-.1171.166597.67831 1.201957 1.29015 3.238103 5.43123 3.238103 6.58563.0.62688-.421264 1.18898-1.286393 1.71645-1.748651 1.06616-1.998146 1.01089-3.10019-.68685-.827482-1.27483-4.747364-4.3796-5.607698-4.44164-.524917-.0354-.31803 1.81956.489663 4.39622.43257 1.38.791767 2.95434.798182 3.49861.0075.63384.787447 1.84326 2.169814 3.36446 2.496616 2.74726 3.765934 5.14719 3.765934 7.12027.0 1.2184-.121904 1.38969-.989533 1.38969-.555734.0-.98953-.2292-.98953-.52248.0-.59194-2.663138-3.83145-3.149773-3.83145-.174557.0-.394154 1.06106-.487948 2.35792-.146136 2.02003-.333931 2.48798-1.310624 3.26546-.627039.49925-1.464753.99659-1.861587 1.10543-.66816.1833-.653797.27108.194293 1.18741.503699.54427 1.697106 2.14729 2.652012 3.56231.954911 1.41505 2.771716 3.80813 4.037345 5.31797 1.265638 1.50986 2.298424 2.93479 2.295093 3.16657-.02423 1.67772-2.612348 2.37904-5.377457 1.45702zm-12.82388-15.68081c-.523604-.55737-1.374891-.9902-1.949116-.99099-2.171867-.003-4.95589-2.59261-4.011212-3.73095.682874-.82278 4.780504-1.54714 6.035209-1.06691 1.817499.69574 2.165307 2.22146 1.522636 6.67942-.05326.36953-.810456-.0529-1.597517-.89057zm-6.856827-6.68938c-.116965-.30489-.982089-.67905-1.922461-.8316-2.170173-.35186-4.282552-2.24481-4.282552-3.83736.0-.96509.152269-1.10978 1.167958-1.10978.642381.0 2.055979-.19033 3.141327-.42302 3.441732-.73815 4.448013.52797 3.613703 4.54686-.443072 2.13411-1.239634 2.90159-1.717975 1.65506zm165.04087-7.00537c-.79012-1.12799-.19736-2.74822 1.5755-4.30464 1.5826-1.38955 2.33351-1.50116 2.90571-.43213.77376 1.44573.47921 3.18393-.74723 4.41041-1.37164 1.37162-2.90775 1.50579-3.73398.32611zM195.95144 94.986609c-1.01502-.50875-1.34601-.90538-1.2381-1.48368.0807-.43414.22897-1.88808.32912-3.23108.23798-3.19402 1.03036-4.02821 3.18589-3.35425 2.10813.65904 3.19019 1.71277 3.56817 3.4747.52897 2.46559.0943 3.80439-1.49123 4.59663-1.74292.8707-2.61315.87019-4.35393-.003zm-80.17545-3.88259c-1.29338-.77633-2.50231-1.5594-2.68652-1.74002-.48331-.47401.69304-2.70335 2.51404-4.76453 3.24798-3.67646 7.11739-9.80242 8.54579-13.52946 1.67938-4.38197 2.10231-4.93731 3.28027-4.30689 1.05139.56267 1.04938.97426-.014 2.69339-.51686.83624-1.05753 2.76684-1.37723 4.91774-.57299 3.85459-1.12126 5.70184-2.6825 9.03776-.56034 1.1973-1.02059 2.56721-1.0227 3.0442-.002.47705-.16876.96928-.37073 1.09397-.20197.12469-.57999.89224-.84038 1.7056-.50831 1.58757-1.81453 3.2599-2.54626 3.2599-.24684.0-1.50725-.63521-2.80064-1.41166zm63.25444-6.19166c-1.14293-.23323-2.07801-.54984-2.07801-.70326.0-.15345 1.7366-.68689 3.85917-1.18544 4.09841-.96266 5.57906-1.55259 6.41032-2.55418.60315-.72676.97939-.68376-5.43054-.62116-3.93824.0353-4.58379-.052-5.49387-.76767-2.73185-2.14886-4.2047-5.63873-2.63406-6.24142.36791-.1412 1.78181.13136 3.14172.60615 2.15243.75116 3.31361.86291 8.96853.86291h6.496l1.78288-3.8592c.98057-2.12253 2.29876-5.23142 2.92932-6.90866 1.80992-4.81413 3.36511-5.02843 5.6316-.77608 1.56547 2.93713 1.60379 4.10134.16599 5.03483-.59868.3885-1.35569 1.06051-1.68224 1.49318-.75055.99446-2.75075 4.71331-2.7621 5.13555-.005.17486 1.46088.20987 3.2569.0781 3.70929-.27209 4.48548.0187 4.10598 1.52944-.38009 1.51443-1.56556 1.93014-5.55585 1.94856l-3.59673.0201-2.56681 2.75953c-1.55105 1.66754-3.23459 3.04581-4.25452 3.48302-2.08817.89508-7.82754 1.2542-10.69342.66908zm-61.0051-14.13607c-.71481-.44176-2.41614-4.55169-2.42009-5.84613-.007-2.44674 2.76468-3.26046 5.13927-1.50852 1.63512 1.20632 1.9676 1.7022 1.97546 2.94589.014 1.98316-3.41356 5.2005-4.69464 4.40876zm18.51508-.73337c-1.63558-.85238-2.16609-1.35274-2.25787-2.12958-.0972-.82176.14071-1.1391 1.24728-1.66419.75196-.3567 1.57288-.64875 1.82435-.64875.25149.0 1.55779-.89058 2.90304-1.9791 2.54619-2.06019 3.59118-2.41381 3.99826-1.35297.6648 1.73249-.38849 4.57553-2.58005 6.96564-1.84127 2.0079-2.604 2.12804-5.13501.80895zm.83069-8.38673c0-1.31385-.0775-2.3888-.17208-2.3888-.0948.0-.63906.17764-1.2097.39455-1.26975.48274-3.03564-.31091-4.01406-1.80425-.52269-.79779-.56478-1.19244-.21023-1.97083.24402-.53533.73098-.97332 1.08234-.97332.35154.0 1.89971-.97964 3.44068-2.17699 3.72055-2.8909 5.34282-2.93821 7.16017-.20899.86066 1.29253.81194 2.14842-.27256 4.78397-.86232 2.09607-3.63097 5.53618-5.11216 6.35187-.62528.34452-.69263.14912-.69263-2.00733zm-18.99903-2.83685c0-.46423-.33474-1.39923-.74346-2.07803-1.67475-2.7801-1.37081-5.786.58502-5.786 1.74661.0 4.89955 1.60589 5.52407 2.81352.5206 1.00676.50499 1.23495-.15941 2.32715-.87781 1.44349-3.53978 3.54073-4.51376 3.5562-.44645.01-.69264-.28891-.69264-.83284zm127.68744 60.184551c.54725-.45384.35014-1.23523-.66894-2.65343-.61287-.85276-.66973-.85904-1.95847-.21608-1.28589.64145-1.30015.67423-.45722 1.05035.91121.40688 1.14907 1.23546.47423 1.65254-.21795.13485-.39598.43464-.39598.66655.0.5038 2.24763.1297 3.00634-.49977z" id="path1424" inkscape:connector-curvature="0"/></svg>